<svg width="169" height="169" viewBox="0 0 169 169" fill="none" xmlns="http://www.w3.org/2000/svg">
    <g transform="matrix(1,0,0,1,108.023,-25.1587)">
        <g transform="matrix(0.238537,0,0,0.238537,-76.9974,48.2765)">
            <g transform="matrix(1.56938,0,0,1.37102,-125.611,-91.7755)">
                <rect x="-2.839" y="-3.749" width="451.442" height="516.758" style="fill:rgb(189,89,58);"/>
            </g>
            <g transform="matrix(5.80743,0,0,5.80743,-66.2173,-33.0801)">
                <path d="M74.359,51.301L69.687,51.301L69.687,63.196L74.359,63.196L74.359,51.301ZM30.988,29.785L30.988,19.281C30.988,17.828 32.172,16.664 33.621,16.664L66.379,16.66C67.828,16.66 69.012,17.828 69.012,19.277L69.012,29.785L63.641,29.785L63.644,20.898L36.359,20.898L36.359,29.789L30.988,29.785ZM24.265,48.547C23.504,48.547 22.89,49.164 22.89,49.922L22.89,55.871L5.601,55.871L5.601,41.543L17.019,31.16L82.98,31.16L94.398,41.543L94.398,55.871L77.113,55.871L77.113,49.922C77.113,49.16 76.496,48.547 75.738,48.547L68.312,48.547C67.551,48.547 66.934,49.164 66.934,49.922L66.934,55.871L33.067,55.871L33.067,49.922C33.067,49.16 32.449,48.547 31.692,48.547L24.265,48.547ZM33.066,58.625L66.933,58.625L66.933,64.574C66.933,65.336 67.55,65.949 68.312,65.949L75.738,65.949C76.5,65.949 77.113,65.332 77.113,64.574L77.113,58.625L94.398,58.625L94.398,83.34L5.597,83.34L5.601,58.625L22.886,58.625L22.886,64.574C22.886,65.336 23.503,65.949 24.261,65.949L31.687,65.949C32.448,65.949 33.062,65.332 33.062,64.574L33.066,58.625ZM30.312,51.301L25.64,51.301L25.64,63.196L30.312,63.196L30.312,51.301Z"
                      style="fill:white;"/>
            </g>
        </g>
    </g>
</svg>
